<svg height="512pt" viewBox="0 0 512 512" width="512pt" xmlns="http://www.w3.org/2000/svg"><path d="m256 478.519531c-7.980469 0-20.839844-5.898437-38.21875-17.535156-4.179688-2.796875-6.679688-7.5-6.65625-12.53125.011719-2.792969.03125-5.601563.046875-8.425781.269531-44.429688.578125-109.792969-19.125-129.617188-6.292969-6.332031-14.8125-9.410156-26.046875-9.410156-20.398438 0-61.929688 9.136719-87.785156 25.070312-6.625 4.082032-15.273438 2.417969-19.914063-3.832031l-19.648437-26.472656c-3.078125-4.148437-3.804688-9.589844-1.921875-14.402344l10.351562-26.472656c1.433594-3.667969 4.25-6.625 7.84375-8.230469 49.367188-22.082031 127.757813-34.726562 193.496094-35.609375 71.40625-.949219 155.183594 11.695313 208.648437 35.609375 3.59375 1.605469 6.414063 4.5625 7.847657 8.230469l10.351562 26.472656c1.882813 4.8125 1.15625 10.253907-1.925781 14.402344l-19.644531 26.472656c-4.640625 6.25-13.289063 7.914063-19.914063 3.832031-25.855468-15.933593-67.386718-25.070312-87.785156-25.070312-11.527344 0-19.800781 2.921875-26.046875 9.191406-19.539063 19.625-19.304687 87.3125-19.078125 138.261719.023438 5.03125-2.476562 9.734375-6.65625 12.53125-17.378906 11.636719-30.238281 17.535156-38.21875 17.535156zm0 0" fill="#444"/><path d="m464.917969 254.890625c-1.433594-3.667969-4.25-6.625-7.84375-8.230469-51.589844-23.074218-131.390625-35.652344-201.074219-35.65625v267.515625c7.980469 0 20.839844-5.898437 38.21875-17.535156 4.179688-2.796875 6.679688-7.5 6.65625-12.53125-.226562-50.949219-.460938-118.636719 19.078125-138.261719 6.246094-6.269531 14.519531-9.191406 26.046875-9.191406 20.398438 0 61.929688 9.136719 87.785156 25.070312 6.625 4.082032 15.273438 2.417969 19.914063-3.832031l19.648437-26.472656c3.078125-4.148437 3.804688-9.589844 1.921875-14.402344zm0 0" fill="#292929"/><path d="m256 181c-24.902344 0-45 20.097656-45 45 0 24.898438 20.097656 45 45 45s45-20.101562 45-45c0-24.902344-20.097656-45-45-45zm0 0" fill="#c6e2e7"/><path d="m301 226c0 24.898438-20.097656 45-45 45v-90c24.902344 0 45 20.097656 45 45zm0 0" fill="#8ebac5"/><path d="m256 0c-140.699219 0-256 115.300781-256 256s115.300781 256 256 256 256-115.300781 256-256-115.300781-256-256-256zm0 451c-107.402344 0-195-87.601562-195-195 0-107.402344 87.597656-196 195-196s195 88.597656 195 196c0 107.398438-87.597656 195-195 195zm0 0" fill="#6e6e6e"/><path d="m512 256c0 140.699219-115.300781 256-256 256v-61c107.402344 0 195-87.601562 195-195 0-107.402344-87.597656-196-195-196v-60c140.699219 0 256 115.300781 256 256zm0 0" fill="#5a5a5a"/></svg>