<?xml version="1.0" encoding="iso-8859-1"?>
<!-- Generator: Adobe Illustrator 19.0.0, SVG Export Plug-In . SVG Version: 6.00 Build 0)  -->
<svg version="1.1" id="Layer_1" xmlns="http://www.w3.org/2000/svg" xmlns:xlink="http://www.w3.org/1999/xlink" x="0px" y="0px"
	 viewBox="0 0 512 512" style="enable-background:new 0 0 512 512;" xml:space="preserve">
<path style="fill:#87D7FF;" d="M489.798,244.027c-16.627-10.241-70.258-23.335-145.52-23.335l-39.756-46.38
	c-8.385-9.782-20.627-15.413-33.511-15.413H85.247c-9.365,0-18.347,3.721-24.969,10.344l-44.53,44.535
	c-4.524,4.524-7.734,10.194-9.287,16.4l-6.457,25.824l132.415,61.792h370.755v-49.903
	C503.173,258.131,498.107,249.146,489.798,244.027z"/>
<path style="fill:#64BEF0;" d="M304.522,174.311c-8.385-9.782-20.627-15.413-33.511-15.413H85.247
	c-9.365,0-18.347,3.721-24.969,10.344l-42.618,42.621h23.083c8.142,0,16.278,0.45,24.37,1.35l67.299,7.478h211.865L304.522,174.311z
	"/>
<path style="fill:#625D6B;" d="M290.716,220.69H144.147c-7.817,0-15.627-0.433-23.396-1.295l-45.946-5.106
	c-9.475-1.053-14.068-12.14-8.112-19.585l16.282-20.353c3.35-4.188,8.423-6.626,13.786-6.626H247.73
	c5.239,0,10.208,2.327,13.562,6.351l32.815,39.374C296.503,216.326,294.458,220.69,290.716,220.69z"/>
<path style="fill:#64BEF0;" d="M503.173,273.655c0-17.655-26.482-35.31-150.067-35.31H8.831c-4.875,0-8.827,3.952-8.827,8.827
	L0,291.31l167.728,17.655h335.445V273.655z"/>
<path style="fill:#00AADC;" d="M503.173,300.138H89.244l-78.5-17.443c-4.715-1.035-9.474,1.935-10.535,6.702
	c-1.052,4.759,1.949,9.474,6.707,10.53l79.447,17.655c0.629,0.142,1.267,0.211,1.913,0.211h414.894c4.879,0,8.828-3.953,8.828-8.827
	S508.052,300.138,503.173,300.138z"/>
<circle style="fill:#EDEDEE;" cx="75.034" cy="304.549" r="40.46"/>
<path style="fill:#504B5A;" d="M75.034,353.103c-26.773,0-48.551-21.779-48.551-48.551c0-26.773,21.779-48.551,48.551-48.551
	s48.551,21.779,48.551,48.551C123.585,331.324,101.807,353.103,75.034,353.103z M75.034,273.655
	c-17.039,0-30.896,13.857-30.896,30.896c0,17.039,13.857,30.896,30.896,30.896s30.896-13.857,30.896-30.896
	C105.93,287.512,92.073,273.655,75.034,273.655z"/>
<circle style="fill:#DCDBDE;" cx="75.034" cy="304.549" r="17.655"/>
<g>
	<path style="fill:#00AADC;" d="M353.1,282.483H141.24c-4.875,0-8.827-3.952-8.827-8.827l0,0c0-4.875,3.953-8.827,8.827-8.827H353.1
		c4.875,0,8.827,3.953,8.827,8.827l0,0C361.927,278.531,357.975,282.483,353.1,282.483z"/>
	<path style="fill:#00AADC;" d="M503.173,282.483h-8.827c-4.875,0-8.828-3.952-8.828-8.827l0,0c0-4.875,3.953-8.827,8.828-8.827
		h8.827c4.875,0,8.827,3.953,8.827,8.827l0,0C512,278.531,508.048,282.483,503.173,282.483z"/>
</g>
<rect x="194.205" y="167.723" style="fill:#504B5A;" width="17.655" height="52.965"/>
<path style="fill:#EDEDEE;" d="M493.697,247.173h-8.181c-4.875,0-8.827,3.953-8.827,8.827c0,4.875,3.953,8.827,8.827,8.827h17.261
	C502.011,257.962,498.814,251.751,493.697,247.173z"/>
<path style="fill:#625D6B;" d="M304.522,174.311c-2.115-2.468-4.48-4.669-7.036-6.585H283.08c-3.742,0-5.786,4.364-3.391,7.24
	l32.813,39.374c3.354,4.025,8.323,6.352,13.562,6.352h18.213L304.522,174.311z"/>
<polygon style="fill:#504B5A;" points="115.388,218.799 132.413,167.725 114.758,167.725 90.598,216.045 "/>
<path style="fill:#FF6464;" d="M6.461,230.176l-2.044,8.169h22.065c4.875,0,8.827-3.953,8.827-8.827s-3.953-8.827-8.827-8.827
	H10.421C8.665,223.639,7.302,226.818,6.461,230.176z"/>
<circle style="fill:#EDEDEE;" cx="419.306" cy="304.549" r="40.46"/>
<path style="fill:#504B5A;" d="M419.306,353.103c-26.773,0-48.551-21.779-48.551-48.551c0-26.773,21.779-48.551,48.551-48.551
	s48.551,21.779,48.551,48.551C467.857,331.324,446.079,353.103,419.306,353.103z M419.306,273.655
	c-17.039,0-30.896,13.857-30.896,30.896c0,17.039,13.857,30.896,30.896,30.896s30.896-13.857,30.896-30.896
	C450.202,287.512,436.345,273.655,419.306,273.655z"/>
<circle style="fill:#DCDBDE;" cx="419.306" cy="304.549" r="17.655"/>
<g>
</g>
<g>
</g>
<g>
</g>
<g>
</g>
<g>
</g>
<g>
</g>
<g>
</g>
<g>
</g>
<g>
</g>
<g>
</g>
<g>
</g>
<g>
</g>
<g>
</g>
<g>
</g>
<g>
</g>
</svg>
